<?xml version="1.0" encoding="utf-8"?>
<!-- Generator: Adobe Illustrator 23.0.3, SVG Export Plug-In . SVG Version: 6.00 Build 0)  -->
<svg version="1.1" id="Layer_1" xmlns="http://www.w3.org/2000/svg" xmlns:xlink="http://www.w3.org/1999/xlink" x="0px" y="0px"
	 viewBox="0 0 612 792" style="enable-background:new 0 0 612 792;" xml:space="preserve">
<style type="text/css">
	.st0{fill:#91342D;}
	.st1{fill:#E5F2D8;}
	.st2{fill:#E5F1D8;}
	.st3{fill:#E7232B;}
</style>
<path class="st0" d="M165.3,324.6c0,0-9.3,68-133.6,98.2c103.2,6.4,153.8-23.9,183.4-51.9C165.5,357.8,165.3,324.6,165.3,324.6z"/>
<path class="st1" d="M-473,220.8c0,0,24.4,20.9,35.3,23.5c0,0-2.2,44.3,15.2,56.5c17.4,12.2,182.4,51.3,223.4,0
	c0,0,10.8-3.2,14.8-80c0,0,30.5-16.7,30.5-31.6v374.8c0,0,0.1,55.9-35.8,55.9c-22.3,0-247.7,0-247.7,0s-35.7,0-33-53.6
	C-473.3,544.7-473,220.8-473,220.8z"/>
<path class="st2" d="M-436.9,155.5c0,0-0.1-74.1-0.8-114.5c-0.1-53,31.5-47.2,31.5-47.2s103.4,4.5,166.4,0
	c65.2,2.6,49.9,54.6,49.9,54.6l36.1,32.2v-214.7c-19.6-23.7-45.2,0-45.2,0l-6,43.3c0,0-149.1,3.8-203.4,4
	c-54.2,0.2-64.7,63.5-64.7,63.5v200.9L-436.9,155.5z"/>
<path class="st3" d="M490.4,420.7c102.3-57.6,108.8-97.5,108.8-97.5s-87.2,7.7-225.7-117.8c0,0-144.2,247.3-309.2,222
	c-38.5-2.9-51.5-2.8-51.5-2.8S229.4,552.8,490.4,420.7z"/>
</svg>
