<?xml version="1.0" encoding="utf-8"?>
<!-- Generator: Adobe Illustrator 23.0.3, SVG Export Plug-In . SVG Version: 6.00 Build 0)  -->
<svg version="1.1" id="Layer_1" xmlns="http://www.w3.org/2000/svg" xmlns:xlink="http://www.w3.org/1999/xlink" x="0px" y="0px"
	 viewBox="0 0 612 792" style="enable-background:new 0 0 612 792;" xml:space="preserve">
<style type="text/css">
	.st0{fill:#FEFEFE;}
	.st1{fill:#F6F9F2;}
	.st2{fill:#91342D;}
	.st3{fill:#E5F2D8;}
	.st4{fill:#E5F1D8;}
	.st5{fill:#E7232B;}
</style>
<g>
	<path class="st0" d="M105.8,397.4c-3.6,0-6.5,1.1-7.2,5c-0.7,3.7,0.5,6.6,4.3,7.6c4.9,1.3,8.2-1,8.5-5.9
		C111.7,400.7,109.8,397.9,105.8,397.4z M3.9,278.3c-1.4-0.6-2.8-1.2-4.2-1.8c-0.6,1.4-2,3.1-1.6,4.1c0.4,1,2.6,1.3,4,1.9
		C2.7,281.1,3.3,279.7,3.9,278.3z"/>
	<path class="st1" d="M143.8,433.4c3.8,0.2,7.6,0.3,11.4,0.5C152.1,437.8,148.4,437.7,143.8,433.4z"/>
	<path class="st1" d="M105.8,397.4c4,0.5,5.9,3.3,5.6,6.8c-0.4,4.9-3.6,7.2-8.5,5.9c-3.8-1-4.9-4-4.3-7.6
		C99.3,398.4,102.2,397.4,105.8,397.4z"/>
	<path class="st1" d="M3.9,278.3c-0.6,1.4-1.2,2.8-1.8,4.2c-1.4-0.6-3.6-0.9-4-1.9c-0.4-1,1-2.7,1.6-4.1
		C1.1,277.1,2.5,277.7,3.9,278.3z"/>
	<path class="st1" d="M159.4,432.4c0-0.3,0-0.7,0.1-1c0.1,0.2,0.2,0.5,0.3,0.8C159.8,432.2,159.5,432.3,159.4,432.4z"/>
	<path class="st1" d="M158.3,433.7c0.3-0.2,0.6-0.4,0.9-0.6C159.2,433.7,159.2,434.3,158.3,433.7z"/>
</g>
<path class="st2" d="M271.8,282.5c0,0-72.5,61.4-86.3,63.4s114-7,116.4-35.5L271.8,282.5z"/>
<path class="st3" d="M173.5,383.1c0,0,24.4,20.9,35.3,23.5c0,0-2.2,44.3,15.2,56.5s182.4,51.3,223.4,0c0,0,10.8-3.2,14.8-80
	c0,0,30.5-16.7,30.5-31.6v374.8c0,0,0.1,55.9-35.8,55.9c-22.3,0-247.7,0-247.7,0s-35.7,0-33-53.6
	C173.1,707.1,173.5,383.1,173.5,383.1z"/>
<path class="st4" d="M209.5,317.9c0,0-0.1-74.1-0.8-114.5c-0.1-53,31.5-47.2,31.5-47.2s103.4,4.5,166.4,0
	c65.2,2.6,49.9,54.6,49.9,54.6l36.1,32.2V28.3c-19.6-23.7-45.2,0-45.2,0l-6,43.3c0,0-149.1,3.8-203.4,4
	c-54.2,0.2-64.7,63.5-64.7,63.5V340L209.5,317.9z"/>
<path class="st5" d="M179.5,362.9c14.4,1.3,188.7,57.1,295-11.4s70.2-62.9,70.2-62.9s-63.4-50.7-145.7-76c0,0-90.4,131.6-208,132.1
	c29.6-17.5-24.9,9.4-24.9,9.4L179.5,362.9z"/>
</svg>
